<svg width="89" height="58" xmlns="http://www.w3.org/2000/svg" xmlns:xlink="http://www.w3.org/1999/xlink">
  <defs>
    <path d="M9 0a4.5 4.5 0 0 0 0 9H4.5a4.5 4.5 0 0 1 0-9H9z" id="a"/>
    <filter x="-11.1%" y="-11.1%" width="122.2%" height="122.2%" filterUnits="objectBoundingBox" id="b">
      <feOffset dx="-2" in="SourceAlpha" result="shadowOffsetInner1"/>
      <feComposite in="shadowOffsetInner1" in2="SourceAlpha" operator="arithmetic" k2="-1" k3="1" result="shadowInnerInner1"/>
      <feColorMatrix values="0 0 0 0 0.831372549 0 0 0 0 0.62745098 0 0 0 0 0.466666667 0 0 0 1 0" in="shadowInnerInner1"/>
    </filter>
    <path d="M3.5 7h1.75H3.5A3.5 3.5 0 0 1 0 3.5h3.5V7z" id="c"/>
    <filter x="-14.3%" y="35.7%" width="103.6%" height="78.6%" filterUnits="objectBoundingBox" id="d">
      <feOffset dx="-2" in="SourceAlpha" result="shadowOffsetInner1"/>
      <feComposite in="shadowOffsetInner1" in2="SourceAlpha" operator="arithmetic" k2="-1" k3="1" result="shadowInnerInner1"/>
      <feColorMatrix values="0 0 0 0 0.831372549 0 0 0 0 0.62745098 0 0 0 0 0.466666667 0 0 0 1 0" in="shadowInnerInner1"/>
    </filter>
    <rect id="e" width="14" height="3.5" rx="1"/>
    <rect id="g" width="14" height="3.5" rx="1"/>
    <rect id="i" width="14" height="3.5" rx="1"/>
    <rect id="k" width="14" height="3.5" rx="1"/>
  </defs>
  <g fill="none" fill-rule="evenodd">
    <g transform="translate(0 -1)">
      <path d="M16.62 7.85l-.88-.35a.48.48 0 0 1 0-.88l.88-.35a.6.6 0 0 0 .34-.34l.35-.88a.48.48 0 0 1 .88 0l.35.88a.6.6 0 0 0 .34.34l.88.35a.48.48 0 0 1 0 .88l-.88.35a.6.6 0 0 0-.34.34l-.35.88a.48.48 0 0 1-.88 0l-.35-.88a.6.6 0 0 0-.34-.34z" fill="#BB8961" fill-rule="nonzero"/>
      <path d="M81.15 56.72l-.8-.5a.47.47 0 0 1 .15-.86l.93-.2a.6.6 0 0 0 .39-.27l.5-.8a.48.48 0 0 1 .86.15l.2.93a.6.6 0 0 0 .27.39l.8.5a.47.47 0 0 1-.15.86l-.93.2a.6.6 0 0 0-.39.27l-.5.8a.48.48 0 0 1-.86-.15l-.2-.93a.6.6 0 0 0-.27-.39z" fill="#4EC9B9" fill-rule="nonzero" opacity=".5"/>
      <path d="M71.13 2.73l-.21-.5a.31.31 0 0 1 .41-.4l.5.2a.6.6 0 0 0 .47 0l.49-.2a.31.31 0 0 1 .41.4l-.21.5a.6.6 0 0 0 0 .47l.21.5a.31.31 0 0 1-.4.4l-.5-.21a.6.6 0 0 0-.48 0l-.49.21a.31.31 0 0 1-.4-.4l.2-.5a.6.6 0 0 0 0-.48zM4.38 28.05l-.21-.49a.31.31 0 0 1 .41-.4l.5.2a.6.6 0 0 0 .47 0l.49-.2a.31.31 0 0 1 .41.4l-.21.5a.6.6 0 0 0 0 .47l.21.49a.31.31 0 0 1-.4.4l-.5-.2a.6.6 0 0 0-.48 0l-.49.2a.31.31 0 0 1-.4-.4l.2-.49a.6.6 0 0 0 0-.48z" fill="#4EC9B9" fill-rule="nonzero" opacity=".6"/>
      <path d="M59.5 8.84l-.43-.25c-.15-.1-.18-.32-.05-.51.12-.19.34-.27.5-.17l.4.24.25-.43c.1-.15.32-.18.5-.05.2.12.27.34.18.5l-.24.4.43.25c.15.1.18.32.05.5-.12.2-.34.27-.5.18l-.4-.24-.25.43c-.1.15-.32.18-.5.05-.2-.12-.28-.34-.18-.5l.24-.4z" fill="#4EC9B9" fill-rule="nonzero"/>
      <path d="M7.05 54.31l-.6.06c-.2.02-.37-.15-.39-.37-.02-.23.13-.42.33-.44l.58-.06-.05-.6c-.02-.2.15-.37.37-.38.22-.02.42.13.44.32l.05.59.6-.06c.2-.02.38.15.4.37 0 .23-.14.42-.34.44l-.58.06.05.6c.02.2-.14.37-.37.39-.22.01-.42-.13-.44-.33l-.05-.59z" fill="#BB8961" fill-rule="nonzero"/>
      <ellipse fill="#D4A077" cx="88.1" cy="16.63" rx="1" ry="1"/>
      <ellipse fill="#4EC9B9" cx=".9" cy="22.97" rx="1" ry="1"/>
      <path d="M49.4 54.62c16.79 0 27.72-17.29 25.48-35.02C72.64 1.86 59.23 2.53 43.8 6.8c-15.42 4.26-28.17 8.73-28.17 25.6 0 16.86 16.97 22.22 33.76 22.22z" opacity=".2" fill="#090C16" fill-rule="nonzero"/>
    </g>
    <path fill="#1B7A75" d="M21.5 16h45v10h-45z"/>
    <path d="M54 22.13c0 1.53-.13 2.57-.4 3.1-.28.56-.81.81-1.6.77h2v-4 .13V16h10.5a2 2 0 0 1 2 2v6a2 2 0 0 1-2 2H54v-3.87z" fill="#035656"/>
    <path d="M23.5 26h41v21a2 2 0 0 1-2 2h-37a2 2 0 0 1-2-2V26z" fill="#035656"/>
    <path fill="#D4A077" fill-rule="nonzero" d="M35 16h7v10h-7z"/>
    <path d="M41.5 25.5v-3.87c0 1.53-.13 2.57-.4 3.1-.28.56-.81.81-1.6.77h2v-4 .13V16h.5v10h-7v-.5h6.5z" fill="#9A6D48" fill-rule="nonzero" opacity=".7"/>
    <path fill="#BB8961" fill-rule="nonzero" d="M36 26h6.5v23H36zm23 0h2v23h-2zm1-10h1.5v10H60z"/>
    <path d="M42 48.5v-3.87c0 1.53-.13 2.57-.4 3.1-.28.56-.81.81-1.6.77h2v-4 .13V26h.5v23H36v-.5h6z" fill="#9A6D48" fill-rule="nonzero" opacity=".7"/>
    <g opacity=".34" style="mix-blend-mode:multiply" fill="#035656">
      <path d="M54.5 31.87V28h-31v-2h41v2zm0 0c0-1.53-.17-2.57-.5-3.1-.35-.56-1.01-.81-2-.77h2.5v3.87z"/>
      <path d="M42.5 26h1v23h-1zM42 16h1v10h-1z"/>
    </g>
    <g fill-rule="nonzero">
      <path d="M36 7a4.5 4.5 0 1 1 0 9h5a4.5 4.5 0 0 0 0-9h-5z" fill="#9A6D48"/>
      <g transform="translate(30.5 7)">
        <use fill="#D4A077" xlink:href="#a"/>
        <use fill="#000" filter="url(#b)" xlink:href="#a"/>
      </g>
    </g>
    <g fill-rule="nonzero">
      <path d="M45.26 9a3.5 3.5 0 0 1 0 7H45h4.25a3.5 3.5 0 0 0 0-7h-4z" fill="#9A6D48"/>
      <g transform="translate(42 9)">
        <use fill="#D4A077" xlink:href="#c"/>
        <use fill="#000" filter="url(#d)" xlink:href="#c"/>
      </g>
    </g>
    <g transform="translate(55.5 45.5)">
      <mask id="f" fill="#fff">
        <use xlink:href="#e"/>
      </mask>
      <use fill="#BB8961" xlink:href="#e"/>
      <path fill="#D4A077" fill-rule="nonzero" mask="url(#f)" d="M2.5 0h2v3.5h-2z"/>
      <path fill="#9A6D48" fill-rule="nonzero" opacity=".5" mask="url(#f)" d="M9 0h3.5v3.5H9z"/>
      <g opacity=".26" style="mix-blend-mode:multiply" mask="url(#f)" fill="#9A6D48" fill-rule="nonzero">
        <path d="M.25 3.33h13.5L14 3v1H0V3l.25.33z"/>
      </g>
    </g>
    <g transform="translate(56.5 42)">
      <mask id="h" fill="#fff">
        <use xlink:href="#g"/>
      </mask>
      <use fill="#BB8961" xlink:href="#g"/>
      <path fill="#D4A077" fill-rule="nonzero" mask="url(#h)" d="M2.5 0h2v3.5h-2z"/>
      <path fill="#9A6D48" fill-rule="nonzero" opacity=".5" mask="url(#h)" d="M9 0h3.5v3.5H9z"/>
      <g opacity=".26" style="mix-blend-mode:multiply" mask="url(#h)" fill="#9A6D48" fill-rule="nonzero">
        <path d="M.25 3.33h13.5L14 3v1H0V3l.25.33z"/>
      </g>
    </g>
    <g transform="translate(56 38.5)">
      <mask id="j" fill="#fff">
        <use xlink:href="#i"/>
      </mask>
      <use fill="#BB8961" xlink:href="#i"/>
      <path fill="#D4A077" fill-rule="nonzero" mask="url(#j)" d="M2.5 0h2v3.5h-2z"/>
      <path fill="#9A6D48" fill-rule="nonzero" opacity=".5" mask="url(#j)" d="M9 0h3.5v3.5H9z"/>
      <g opacity=".26" style="mix-blend-mode:multiply" mask="url(#j)" fill="#9A6D48" fill-rule="nonzero">
        <path d="M.25 3.33h13.5L14 3v1H0V3l.25.33z"/>
      </g>
    </g>
    <g transform="translate(55.5 35)">
      <mask id="l" fill="#fff">
        <use xlink:href="#k"/>
      </mask>
      <use fill="#BB8961" xlink:href="#k"/>
      <path fill="#D4A077" fill-rule="nonzero" mask="url(#l)" d="M2.5 0h2v3.5h-2z"/>
      <path fill="#9A6D48" fill-rule="nonzero" opacity=".5" mask="url(#l)" d="M9 0h3.5v3.5H9z"/>
      <g opacity=".26" style="mix-blend-mode:multiply" mask="url(#l)" fill="#9A6D48" fill-rule="nonzero">
        <path d="M.25 3.33h13.5L14 3v1H0V3l.25.33z"/>
      </g>
    </g>
    <path d="M58.89 35.55l-.5-.2a.38.38 0 0 1 0-.7l.5-.2a1 1 0 0 0 .56-.56l.2-.5a.38.38 0 0 1 .7 0l.2.5a1 1 0 0 0 .56.56l.5.2a.38.38 0 0 1 0 .7l-.5.2a1 1 0 0 0-.56.56l-.2.5a.38.38 0 0 1-.7 0l-.2-.5a1 1 0 0 0-.56-.56z" fill="#FFF" fill-rule="nonzero"/>
  </g>
</svg>
