<svg width="61" height="51" xmlns="http://www.w3.org/2000/svg">
  <g fill="none">
    <path d="M34.4 50.62c16.79 0 27.72-17.29 25.48-35.02C57.64-2.14 44.23-1.47 28.8 2.8 13.38 7.06.64 11.53.64 28.4c0 16.86 16.96 22.23 33.75 22.23z" opacity=".2" fill="#090C16"/>
    <g transform="translate(8.5 3)">
      <g transform="translate(8)">
        <path d="M2.5 0h21A2.5 2.5 0 0 1 26 2.5V43a2.5 2.5 0 0 1-2.5 2.5h-21A2.5 2.5 0 0 1 0 43V2.5A2.5 2.5 0 0 1 2.5 0z" fill="#0D7171"/>
        <path d="M2 1.63h22a2 2 0 0 1 2 2v37H0v-37a2 2 0 0 1 2-2z" fill="#035656"/>
        <rect fill="#035656" x="9.34" y="42.25" width="8.53" height="2.03" rx="1.02"/>
        <path d="M8.53 1.63h8.53l-.1.16a3.24 3.24 0 0 1-2.71 1.46h-2.9a3.24 3.24 0 0 1-2.71-1.46l-.1-.17z" fill="#0D7171"/>
      </g>
      <rect fill="#0D7171" x="20" y="17" width="23" height="15" rx="3"/>
      <path d="M26.5 26a1.5 1.5 0 1 1 0-3 1.5 1.5 0 0 1 0 3zm5 0a1.5 1.5 0 1 1 0-3 1.5 1.5 0 0 1 0 3zm5 0a1.5 1.5 0 1 1 0-3 1.5 1.5 0 0 1 0 3z" fill="#4EC9B9"/>
      <path fill="#0D7171" d="M27 32h5l-5 5z"/>
      <path fill="#BB8961" d="M15.5 23h-5l5 5z"/>
      <rect fill="#BB8961" y="8" width="23" height="15" rx="3"/>
      <path d="M6.5 17a1.5 1.5 0 1 1 0-3 1.5 1.5 0 0 1 0 3zm5 0a1.5 1.5 0 1 1 0-3 1.5 1.5 0 0 1 0 3zm5 0a1.5 1.5 0 1 1 0-3 1.5 1.5 0 0 1 0 3z" fill="#FFF"/>
    </g>
  </g>
</svg>
