<?xml version="1.0" encoding="UTF-8"?>
<svg width="311px" height="114px" viewBox="0 0 311 114" version="1.1" xmlns="http://www.w3.org/2000/svg" xmlns:xlink="http://www.w3.org/1999/xlink">
    <defs>
        <rect id="path-1" x="0" y="0" width="22.2068966" height="5.55172414" rx="1"></rect>
        <rect id="path-3" x="0" y="0" width="22.2068966" height="5.55172414" rx="1"></rect>
        <rect id="path-5" x="0" y="0" width="22.2068966" height="5.55172414" rx="1"></rect>
        <rect id="path-7" x="0" y="0" width="22.2068966" height="5.55172414" rx="1"></rect>
        <rect id="path-9" x="0" y="0" width="22.2068966" height="5.55172414" rx="1"></rect>
        <rect id="path-11" x="0" y="0" width="22.2068966" height="5.55172414" rx="1"></rect>
        <rect id="path-13" x="0" y="0" width="22.2068966" height="5.55172414" rx="1"></rect>
        <rect id="path-15" x="0" y="0" width="22.2068966" height="5.55172414" rx="1"></rect>
        <rect id="path-17" x="0" y="0" width="22.2068966" height="5.55172414" rx="1"></rect>
        <rect id="path-19" x="0" y="0" width="22.2068966" height="5.55172414" rx="1"></rect>
        <rect id="path-21" x="0" y="0" width="22.2068966" height="5.55172414" rx="1"></rect>
        <rect id="path-23" x="0" y="0" width="22.2068966" height="5.55172414" rx="1"></rect>
    </defs>
    <g id="Page-1" stroke="none" stroke-width="1" fill="none" fill-rule="evenodd">
        <g id="Gift" transform="translate(-1.000000, -3.000000)">
            <g id="Referral/Pictures/Banner/Gift-1" transform="translate(122.000000, 27.000000)">
                <rect id="Rectangle" fill="#1B7A75" x="0.96551724" y="14.9655172" width="71.3793103" height="15.862069"></rect>
                <path d="M52.5172414,24.6916164 C52.5172384,27.1197126 52.3040233,28.7597234 51.8775962,29.611649 C51.4390541,30.4877781 50.5947979,30.8904439 49.3448276,30.8196464 L52.5167254,30.8196464 L52.5167254,24.4827586 C52.5170693,24.5529803 52.5172413,24.6225666 52.5172414,24.6915173 L52.5172414,14.9655172 L70.3448276,14.9655172 C71.4493971,14.9655172 72.3448276,15.8609477 72.3448276,16.9655172 L72.3448276,28.8275862 C72.3448276,29.9321557 71.4493971,30.8275862 70.3448276,30.8275862 L52.5172414,30.8275862 L52.5172414,24.6916164 Z" id="Combined-Shape" fill="#035656"></path>
                <path d="M4.13793103,30.8275862 L69.1724138,30.8275862 L69.1724138,65.3103448 C69.1724138,66.4149143 68.2769833,67.3103448 67.1724138,67.3103448 L6.13793103,67.3103448 C5.03336153,67.3103448 4.13793103,66.4149143 4.13793103,65.3103448 L4.13793103,30.8275862 Z" id="Rectangle" fill="#035656"></path>
                <rect id="Rectangle" fill="#D4A077" fill-rule="nonzero" x="22.3793103" y="14.9655172" width="11.1034483" height="15.862069"></rect>
                <path d="M32.6896552,30.0344828 L32.6896552,23.8985129 C32.6896522,26.3266091 32.4764371,27.96662 32.05001,28.8185456 C31.6114679,29.6946747 30.7672117,30.0973405 29.5172414,30.0265429 L32.6891391,30.0265429 L32.6891391,23.6896552 C32.6894831,23.7598769 32.6896551,23.8294632 32.6896552,23.8984139 L32.6896552,14.9655172 L33.4827586,14.9655172 L33.4827586,30.8275862 L32.6896552,30.8275862 L22.3793103,30.8275862 L22.3793103,30.0344828 L32.6896552,30.0344828 Z" id="Combined-Shape" fill="#9A6D48" fill-rule="nonzero" opacity="0.699999988"></path>
                <rect id="Rectangle-Copy" fill="#BB8961" fill-rule="nonzero" x="23.9655172" y="30.8275862" width="10.3103448" height="36.4827586"></rect>
                <rect id="Rectangle-Copy-5" fill="#BB8961" fill-rule="nonzero" x="60.4482759" y="30.8275862" width="3.17241379" height="36.4827586"></rect>
                <rect id="Rectangle-Copy-6" fill="#BB8961" fill-rule="nonzero" x="62.0344828" y="14.9655172" width="2.37931034" height="15.862069"></rect>
                <path d="M33.4827586,66.5172414 L33.4827586,60.3812716 C33.4827556,62.8093677 33.2695406,64.4493786 32.8431135,65.3013042 C32.4045714,66.1774333 31.5603152,66.5800991 30.3103448,66.5093015 L33.4822426,66.5093015 L33.4822426,60.1724138 C33.4825865,60.2426356 33.4827585,60.3122218 33.4827586,60.3811726 L33.4827586,30.8275862 L34.2758621,30.8275862 L34.2758621,67.3103448 L33.4827586,67.3103448 L23.9655172,67.3103448 L23.9655172,66.5172414 L33.4827586,66.5172414 Z" id="Combined-Shape" fill="#9A6D48" fill-rule="nonzero" opacity="0.699999988"></path>
                <g id="Rectangle-2" opacity="0.336751302" style="mix-blend-mode: multiply;" transform="translate(4.137931, 14.965517)" fill="#035656">
                    <path d="M65.0344828,19.0344828 L65.0344828,52.3448276 L49.1724138,52.3448276 L49.1724138,25.1705507 C49.1724137,25.2395017 49.1721987,25.3090883 49.1717688,25.3793103 L49.1717688,19.0424226 L45.2068966,19.0424226 C46.7693595,18.9716251 47.8246797,19.3742908 48.3728573,20.2504199 C48.9058912,21.1023455 49.1724101,22.7423564 49.1724138,25.1704526 L49.1724138,19.0344828 L0,19.0344828 L0,15.862069 L65.0344828,15.862069 L65.0344828,19.0344828 Z" id="Combined-Shape"></path>
                    <rect id="Rectangle-Copy-11" x="30.137931" y="15.862069" width="1" height="36.4827586"></rect>
                    <rect id="Rectangle-Copy-12" x="29.3448276" y="0" width="1" height="15.862069"></rect>
                </g>
                <g id="Group-2" transform="translate(15.241379, 0.689655)" fill-rule="nonzero">
                    <path d="M23.7931035,0 L23.0000001,0 C19.0578296,0 15.8620691,3.19576058 15.8620691,7.13793103 C15.8620691,11.0801015 19.0578296,14.2758621 23.0000001,14.2758621 L23.7931035,14.2758621 L15.0689656,14.2758621 C11.1267952,14.2758621 7.9310346,11.0801015 7.9310346,7.13793103 C7.9310346,3.19576058 11.1267952,0 15.0689656,0 L23.7931035,0 Z" id="Combined-Shape-Copy" fill="#9A6D48" transform="translate(15.862069, 7.137931) scale(-1, 1) translate(-15.862069, -7.137931) "></path>
                    <g id="Combined-Shape" fill="#D4A077">
                        <g id="path-1-link">
                            <path d="M14.2758621,0 C10.3336916,0 7.13793103,3.19576058 7.13793103,7.13793103 C7.13793103,11.0801015 10.3336916,14.2758621 14.2758621,14.2758621 L7.13793103,14.2758621 C3.19576058,14.2758621 0,11.0801015 0,7.13793103 C0,3.19576058 3.19576058,0 7.13793103,0 L14.2758621,0 Z" id="path-1"></path>
                        </g>
                        <g id="path-1-link">
                            <path d="M14.2758621,0 C10.3336916,0 7.13793103,3.19576058 7.13793103,7.13793103 C7.13793103,11.0801015 10.3336916,14.2758621 14.2758621,14.2758621 L7.13793103,14.2758621 C3.19576058,14.2758621 0,11.0801015 0,7.13793103 C0,3.19576058 3.19576058,0 7.13793103,0 L14.2758621,0 Z" id="path-1"></path>
                        </g>
                    </g>
                </g>
                <g id="Group-2-Copy" transform="translate(33.482759, 3.862069)" fill-rule="nonzero">
                    <path d="M16.6669264,5.32907052e-15 L16.2703746,5.32907052e-15 C13.2042421,5.32907052e-15 10.7186505,2.48559156 10.7186505,5.55172414 C10.7186505,8.61785671 13.2042421,11.1034483 16.2703746,11.1034483 L17.0634781,11.1034483 L9.92554699,11.1034483 C6.85941446,11.1034483 4.3738229,8.61785671 4.3738229,5.55172414 C4.3738229,2.48559156 6.85941446,5.32907052e-15 9.92554699,5.32907052e-15 L16.6669264,5.32907052e-15 L16.6669264,5.32907052e-15 Z" id="Combined-Shape-Copy" fill="#9A6D48" transform="translate(10.718650, 5.551724) scale(-1, 1) translate(-10.718650, -5.551724) "></path>
                    <g id="Combined-Shape" fill="#D4A077">
                        <g id="path-3-link">
                            <path d="M5.55172414,5.55172414 L5.55172414,11.1034483 L0,11.1034483 L0,5.55172414 C0,2.48559156 2.48559156,0 5.55172414,0 L11.1034483,0 C8.0373157,0 5.55172414,2.48559156 5.55172414,5.55172414 Z M11.1034483,11.1034483 L5.55172414,11.1034483 L11.1034483,11.1034483 Z" id="path-3"></path>
                        </g>
                        <g id="path-3-link">
                            <path d="M5.55172414,5.55172414 L5.55172414,11.1034483 L0,11.1034483 L0,5.55172414 C0,2.48559156 2.48559156,0 5.55172414,0 L11.1034483,0 C8.0373157,0 5.55172414,2.48559156 5.55172414,5.55172414 Z M11.1034483,11.1034483 L5.55172414,11.1034483 L11.1034483,11.1034483 Z" id="path-3"></path>
                        </g>
                    </g>
                </g>
                <g id="Group" transform="translate(54.896552, 45.103448)">
                    <g id="Referral/Pictures/Stuff/Coin/Front/1-Copy-3" transform="translate(0.000000, 16.655172)">
                        <g id="path-1" fill="#BB8961" fill-rule="nonzero">
                            <rect id="path-5" x="0" y="0" width="22.2068966" height="5.55172414" rx="1"></rect>
                        </g>
                        <g id="Rectangle-Clipped">
                            <mask id="mask-2" fill="white">
                                <use xlink:href="#path-1"></use>
                            </mask>
                            <g id="path-5"></g>
                            <rect id="Rectangle" fill="#D4A077" fill-rule="nonzero" mask="url(#mask-2)" x="3.96551724" y="0" width="3.17241379" height="5.55172414"></rect>
                        </g>
                        <g id="Rectangle-Copy-2-Clipped">
                            <mask id="mask-4" fill="white">
                                <use xlink:href="#path-3"></use>
                            </mask>
                            <g id="path-5"></g>
                            <rect id="Rectangle-Copy-2" fill="#9A6D48" fill-rule="nonzero" opacity="0.5" mask="url(#mask-4)" x="14.2758621" y="0" width="5.55172414" height="5.55172414"></rect>
                        </g>
                        <g id="Rectangle-2-Clipped">
                            <mask id="mask-6" fill="white">
                                <use xlink:href="#path-5"></use>
                            </mask>
                            <g id="path-5"></g>
                            <g id="Rectangle-2" opacity="0.262997582" style="mix-blend-mode: multiply;" mask="url(#mask-6)">
                                <g transform="translate(0.000000, 4.000000)" id="Rectangle-3">
                                    <g transform="translate(0.000000, 0.758621)">
                                        <polygon id="Path" fill="#9A6D48" fill-rule="nonzero" points="0.396551724 0.333333333 21.8103448 0.333333333 22.2068966 0 22.2068966 0.333333333 22.2068966 1 0 1 0 0.333333333 0 0"></polygon>
                                    </g>
                                </g>
                            </g>
                        </g>
                    </g>
                    <g id="Referral/Pictures/Stuff/Coin/Front/1-Copy-4" transform="translate(1.586207, 11.103448)">
                        <g id="path-1" fill="#BB8961" fill-rule="nonzero">
                            <rect id="path-7" x="0" y="0" width="22.2068966" height="5.55172414" rx="1"></rect>
                        </g>
                        <g id="Rectangle-Clipped">
                            <mask id="mask-8" fill="white">
                                <use xlink:href="#path-7"></use>
                            </mask>
                            <g id="path-7"></g>
                            <rect id="Rectangle" fill="#D4A077" fill-rule="nonzero" mask="url(#mask-8)" x="3.96551724" y="0" width="3.17241379" height="5.55172414"></rect>
                        </g>
                        <g id="Rectangle-Copy-2-Clipped">
                            <mask id="mask-10" fill="white">
                                <use xlink:href="#path-9"></use>
                            </mask>
                            <g id="path-7"></g>
                            <rect id="Rectangle-Copy-2" fill="#9A6D48" fill-rule="nonzero" opacity="0.5" mask="url(#mask-10)" x="14.2758621" y="0" width="5.55172414" height="5.55172414"></rect>
                        </g>
                        <g id="Rectangle-2-Clipped">
                            <mask id="mask-12" fill="white">
                                <use xlink:href="#path-11"></use>
                            </mask>
                            <g id="path-7"></g>
                            <g id="Rectangle-2" opacity="0.262997582" style="mix-blend-mode: multiply;" mask="url(#mask-12)">
                                <g transform="translate(0.000000, 4.000000)" id="Rectangle-3">
                                    <g transform="translate(0.000000, 0.758621)">
                                        <polygon id="Path" fill="#9A6D48" fill-rule="nonzero" points="0.396551724 0.333333333 21.8103448 0.333333333 22.2068966 0 22.2068966 0.333333333 22.2068966 1 0 1 0 0.333333333 0 0"></polygon>
                                    </g>
                                </g>
                            </g>
                        </g>
                    </g>
                    <g id="Referral/Pictures/Stuff/Coin/Front/1-Copy-5" transform="translate(0.793103, 5.551724)">
                        <g id="path-1" fill="#BB8961" fill-rule="nonzero">
                            <rect id="path-9" x="0" y="0" width="22.2068966" height="5.55172414" rx="1"></rect>
                        </g>
                        <g id="Rectangle-Clipped">
                            <mask id="mask-14" fill="white">
                                <use xlink:href="#path-13"></use>
                            </mask>
                            <g id="path-9"></g>
                            <rect id="Rectangle" fill="#D4A077" fill-rule="nonzero" mask="url(#mask-14)" x="3.96551724" y="0" width="3.17241379" height="5.55172414"></rect>
                        </g>
                        <g id="Rectangle-Copy-2-Clipped">
                            <mask id="mask-16" fill="white">
                                <use xlink:href="#path-15"></use>
                            </mask>
                            <g id="path-9"></g>
                            <rect id="Rectangle-Copy-2" fill="#9A6D48" fill-rule="nonzero" opacity="0.5" mask="url(#mask-16)" x="14.2758621" y="0" width="5.55172414" height="5.55172414"></rect>
                        </g>
                        <g id="Rectangle-2-Clipped">
                            <mask id="mask-18" fill="white">
                                <use xlink:href="#path-17"></use>
                            </mask>
                            <g id="path-9"></g>
                            <g id="Rectangle-2" opacity="0.262997582" style="mix-blend-mode: multiply;" mask="url(#mask-18)">
                                <g transform="translate(0.000000, 4.000000)" id="Rectangle-3">
                                    <g transform="translate(0.000000, 0.758621)">
                                        <polygon id="Path" fill="#9A6D48" fill-rule="nonzero" points="0.396551724 0.333333333 21.8103448 0.333333333 22.2068966 0 22.2068966 0.333333333 22.2068966 1 0 1 0 0.333333333 0 0"></polygon>
                                    </g>
                                </g>
                            </g>
                        </g>
                    </g>
                    <g id="Referral/Pictures/Stuff/Coin/Front/1-Copy-6">
                        <g id="path-1" fill="#BB8961" fill-rule="nonzero">
                            <rect id="path-11" x="0" y="0" width="22.2068966" height="5.55172414" rx="1"></rect>
                        </g>
                        <g id="Rectangle-Clipped">
                            <mask id="mask-20" fill="white">
                                <use xlink:href="#path-19"></use>
                            </mask>
                            <g id="path-11"></g>
                            <rect id="Rectangle" fill="#D4A077" fill-rule="nonzero" mask="url(#mask-20)" x="3.96551724" y="0" width="3.17241379" height="5.55172414"></rect>
                        </g>
                        <g id="Rectangle-Copy-2-Clipped">
                            <mask id="mask-22" fill="white">
                                <use xlink:href="#path-21"></use>
                            </mask>
                            <g id="path-11"></g>
                            <rect id="Rectangle-Copy-2" fill="#9A6D48" fill-rule="nonzero" opacity="0.5" mask="url(#mask-22)" x="14.2758621" y="0" width="5.55172414" height="5.55172414"></rect>
                        </g>
                        <g id="Rectangle-2-Clipped">
                            <mask id="mask-24" fill="white">
                                <use xlink:href="#path-23"></use>
                            </mask>
                            <g id="path-11"></g>
                            <g id="Rectangle-2" opacity="0.262997582" style="mix-blend-mode: multiply;" mask="url(#mask-24)">
                                <g transform="translate(0.000000, 4.000000)" id="Rectangle-3">
                                    <g transform="translate(0.000000, 0.758621)">
                                        <polygon id="Path" fill="#9A6D48" fill-rule="nonzero" points="0.396551724 0.333333333 21.8103448 0.333333333 22.2068966 0 22.2068966 0.333333333 22.2068966 1 0 1 0 0.333333333 0 0"></polygon>
                                    </g>
                                </g>
                            </g>
                        </g>
                    </g>
                </g>
                <path d="M60.5088379,46.0657199 L59.4909153,45.6642571 C59.1811891,45.5421029 59.029132,45.1919947 59.1512863,44.8822685 C59.2125625,44.7269006 59.3355474,44.6039157 59.4909153,44.5426394 L60.5088379,44.1411766 C60.7665606,44.0395323 60.9705668,43.8355261 61.0722111,43.5778034 L61.4736739,42.5598808 C61.5958282,42.2501547 61.9459364,42.0980976 62.2556625,42.2202518 C62.4110304,42.281528 62.5340154,42.4045129 62.5952916,42.5598808 L62.9967544,43.5778034 C63.0983987,43.8355261 63.3024049,44.0395323 63.5601276,44.1411766 L64.5780502,44.5426394 C64.8877764,44.6647937 65.0398335,45.0149019 64.9176793,45.3246281 C64.8564031,45.4799959 64.7334181,45.6029809 64.5780502,45.6642571 L63.5601276,46.0657199 C63.3024049,46.1673643 63.0983987,46.3713705 62.9967544,46.6290932 L62.5952916,47.6470157 C62.4731374,47.9567419 62.1230291,48.108799 61.813303,47.9866448 C61.6579351,47.9253686 61.5349501,47.8023836 61.4736739,47.6470157 L61.0722111,46.6290932 C60.9705668,46.3713705 60.7665606,46.1673643 60.5088379,46.0657199 Z" id="Star-Copy" fill="#FFFFFF" fill-rule="nonzero"></path>
            </g>
            <g id="Group-5" fill-rule="nonzero">
                <path d="M102.254303,15.5488054 L100.330761,14.8485281 C99.862132,14.6779208 99.620538,14.1597172 99.791145,13.691088 C99.882441,13.4403142 100.079987,13.2427676 100.330761,13.1514719 L102.254303,12.4511946 C102.514109,12.3566106 102.72316,12.1586811 102.831792,11.9044285 L103.580761,10.1514719 C103.797673,9.64379028 104.385073,9.40807517 104.892754,9.62498743 C105.129498,9.72613847 105.318088,9.91472858 105.419239,10.1514719 L106.168208,11.9044285 C106.27684,12.1586811 106.485891,12.3566106 106.745697,12.4511946 L108.669239,13.1514719 C109.137868,13.3220792 109.379462,13.8402828 109.208855,14.308912 C109.117559,14.5596858 108.920013,14.7572324 108.669239,14.8485281 L106.745697,15.5488054 C106.485891,15.6433894 106.27684,15.8413189 106.168208,16.0955715 L105.419239,17.8485281 C105.202327,18.3562097 104.614927,18.5919248 104.107246,18.3750126 C103.870502,18.2738615 103.681912,18.0852714 103.580761,17.8485281 L102.831792,16.0955715 C102.72316,15.8413189 102.514109,15.6433894 102.254303,15.5488054 Z" id="Star" fill="#BB8961"></path>
                <path d="M231.329132,113.234386 L228.884971,112.281267 C228.370425,112.080615 228.115963,111.500833 228.316614,110.986287 C228.418061,110.726139 228.623657,110.520254 228.883663,110.418442 L231.334837,109.45862 C231.592347,109.357785 231.796602,109.154813 231.899058,108.897944 L232.877664,106.44446 C233.082275,105.931476 233.664001,105.68149 234.176985,105.886101 C234.432271,105.987925 234.634394,106.190331 234.735862,106.445759 L235.707707,108.892224 C235.810163,109.150141 236.015193,109.353882 236.273752,109.454709 L238.717913,110.407829 C239.232459,110.60848 239.486921,111.188262 239.28627,111.702808 C239.184823,111.962957 238.979227,112.168841 238.719221,112.270654 L236.268047,113.230476 C236.010537,113.331311 235.806281,113.534283 235.703826,113.791152 L234.72522,116.244635 C234.520609,116.75762 233.938883,117.007605 233.425899,116.802995 C233.170613,116.70117 232.96849,116.498764 232.867022,116.243337 L231.895177,113.796872 C231.792721,113.538954 231.58769,113.335213 231.329132,113.234386 Z" id="Star-Copy-4" fill="#4EC9B9" opacity="0.5" transform="translate(233.801442, 111.344548) rotate(10.000000) translate(-233.801442, -111.344548) "></path>
                <path d="M306.701373,76.5709894 L305.432331,76.0761163 C305.070961,75.9351974 304.892251,75.5280121 305.03317,75.1666426 C305.104417,74.9839382 305.248808,74.8393439 305.431412,74.7678404 L306.705663,74.2688739 C306.963172,74.1680391 307.167428,73.9650671 307.269884,73.708198 L307.772397,72.4483352 C307.917791,72.0838165 308.331156,71.9061803 308.695675,72.0515736 C308.877077,72.1239284 309.020703,72.267755 309.092804,72.449258 L309.591204,73.7038998 C309.69366,73.9618175 309.898691,74.1655584 310.157249,74.2663855 L311.426292,74.7612586 C311.787661,74.9021775 311.966372,75.3093628 311.825453,75.6707323 C311.754206,75.8534367 311.609814,75.998031 311.42721,76.0695345 L310.15296,76.568501 C309.89545,76.6693358 309.691195,76.8723078 309.588739,77.1291769 L309.086225,78.3890397 C308.940832,78.7535584 308.527466,78.9311946 308.162948,78.7858013 C307.981546,78.7134465 307.83792,78.5696199 307.765819,78.3881169 L307.267419,77.1334751 C307.164963,76.8755574 306.959932,76.6718165 306.701373,76.5709894 Z" id="Star-Copy-5" fill="#4EC9B9" opacity="0.800000012" transform="translate(308.429311, 75.418687) rotate(10.000000) translate(-308.429311, -75.418687) "></path>
                <path d="M2.7013733,91.5709892 L1.43233106,91.0761161 C1.07096152,90.9351972 0.892250991,90.5280119 1.0331699,90.1666424 C1.10441692,89.983938 1.24880839,89.8393437 1.43141252,89.7678402 L2.70566272,89.2688737 C2.96317255,89.1680389 3.16742785,88.9650669 3.2698837,88.7081978 L3.77239755,87.448335 C3.91779092,87.0838163 4.33115633,86.9061801 4.69567504,87.0515734 C4.87707703,87.1239282 5.02070282,87.2677548 5.0928039,87.4492578 L5.59120371,88.7038996 C5.69366011,88.9618173 5.89869061,89.1655582 6.15724951,89.2663853 L7.42629175,89.7612584 C7.78766129,89.9021773 7.96637182,90.3093626 7.8254529,90.6707321 C7.75420589,90.8534365 7.60981441,90.9980308 7.42721028,91.0695343 L6.15296008,91.5685008 C5.89545025,91.6693356 5.69119496,91.8723076 5.58873911,92.1291767 L5.08622526,93.3890395 C4.94083189,93.7535582 4.52746648,93.9311944 4.16294777,93.7858011 C3.98154578,93.7134463 3.83791999,93.5696197 3.76581891,93.3881167 L3.2674191,92.1334749 C3.1649627,91.8755572 2.9599322,91.6718163 2.7013733,91.5709892 Z" id="Star-Copy-6" fill="#BB8961" opacity="0.800000012" transform="translate(4.429311, 90.418687) rotate(-20.000000) translate(-4.429311, -90.418687) "></path>
                <path d="M211.252513,7.17954756 L209.825542,6.62341748 C209.425618,6.46755613 209.227767,6.01700336 209.383628,5.61707969 C209.461816,5.41645846 209.619731,5.25726573 209.819715,5.17746373 L211.278716,4.59526294 C211.533437,4.49361907 211.735234,4.29182222 211.836877,4.03710165 L212.419078,2.57810025 C212.578157,2.17944583 213.03029,1.98523178 213.428944,2.14431105 C213.628929,2.22411301 213.786844,2.38330577 213.865031,2.58392705 L214.421161,4.01089825 C214.522784,4.27165206 214.729023,4.47789075 214.989777,4.57951374 L216.416747,5.13564382 C216.816671,5.29150517 217.014523,5.74205794 216.858661,6.1419816 C216.780474,6.34260284 216.622559,6.50179557 216.422574,6.58159757 L214.963573,7.16379835 C214.708853,7.26544223 214.507056,7.46723908 214.405412,7.72195965 L213.823212,9.18096105 C213.664132,9.57961547 213.212,9.77382952 212.813345,9.61475025 C212.613361,9.53494829 212.455446,9.37575553 212.377258,9.17513425 L211.821128,7.74816305 C211.719505,7.48740923 211.513267,7.28117055 211.252513,7.17954756 Z" id="Star-Copy-2" fill="#4EC9B9" opacity="0.600000024" transform="translate(213.121145, 5.879531) rotate(45.000000) translate(-213.121145, -5.879531) "></path>
                <path d="M77.7525133,57.4107035 L76.3255425,56.8545734 C75.9256189,56.6987121 75.7277673,56.2481593 75.8836286,55.8482356 C75.9618163,55.6476144 76.1197312,55.4884217 76.3197157,55.4086197 L77.7787167,54.8264189 C78.0334372,54.724775 78.235234,54.5229781 78.3368778,54.2682576 L78.9190785,52.8092562 C79.0781578,52.4106018 79.5302903,52.2163877 79.9289447,52.375467 C80.1289293,52.4552689 80.2868442,52.6144617 80.3650318,52.815083 L80.9211618,54.2420542 C81.0227847,54.502808 81.2290234,54.7090467 81.4897772,54.8106697 L82.9167479,55.3667997 C83.3166715,55.5226611 83.5145231,55.9732139 83.3586618,56.3731375 C83.2804741,56.5737588 83.1225593,56.7329515 82.9225747,56.8127535 L81.4635738,57.3949543 C81.2088532,57.4965982 81.0070564,57.698395 80.9054126,57.9531156 L80.3232119,59.412117 C80.1641327,59.8107714 79.7120002,60.0049854 79.3133457,59.8459062 C79.1133611,59.7661042 78.9554462,59.6069115 78.8772586,59.4062902 L78.3211286,57.979319 C78.2195057,57.7185652 78.013267,57.5123265 77.7525133,57.4107035 Z" id="Star-Copy-3" fill="#4EC9B9" opacity="0.600000024" transform="translate(79.621145, 56.110687) rotate(45.000000) translate(-79.621145, -56.110687) "></path>
                <path d="M188.370503,18.0051499 L187.328616,18.1047398 C186.977975,18.1382563 186.670149,17.8378179 186.641069,17.4336919 C186.611988,17.0295659 186.872664,16.6747867 187.223306,16.6412702 L188.230929,16.5449554 L188.131339,15.5030684 C188.097823,15.1524269 188.398261,14.8446013 188.802387,14.8155206 C189.206513,14.7864399 189.561292,15.0471165 189.594809,15.397758 L189.691124,16.4053811 L190.733011,16.3057912 C191.083652,16.2722748 191.391478,16.5727131 191.420558,16.9768391 C191.449639,17.3809651 191.188963,17.7357444 190.838321,17.7692608 L189.830698,17.8655756 L189.930288,18.9074626 C189.963804,19.2581041 189.663366,19.5659298 189.25924,19.5950104 C188.855114,19.6240911 188.500335,19.3634146 188.466818,19.0127731 L188.370503,18.0051499 Z" id="Combined-Shape" fill="#4EC9B9" transform="translate(189.030813, 17.205266) rotate(37.000000) translate(-189.030813, -17.205266) "></path>
                <path d="M82.8812667,107.232937 L81.720918,107.330975 C81.3544387,107.361939 81.0327091,107.08438 81.0023149,106.711031 C80.9719207,106.337681 81.2443715,106.00992 81.6108508,105.978956 L82.7670634,105.881267 L82.669025,104.720918 C82.638061,104.354439 82.9156195,104.032709 83.2889694,104.002315 C83.6623192,103.971921 83.9900803,104.244372 84.0210444,104.610851 L84.1187333,105.767063 L85.279082,105.669025 C85.6455613,105.638061 85.9672909,105.91562 85.9976851,106.288969 C86.0280793,106.662319 85.7556285,106.99008 85.3891492,107.021044 L84.2329366,107.118733 L84.330975,108.279082 C84.361939,108.645561 84.0843805,108.967291 83.7110306,108.997685 C83.3376808,109.028079 83.0099197,108.755628 82.9789556,108.389149 L82.8812667,107.232937 Z" id="Combined-Shape-Copy" fill="#BB8961"></path>
                <circle id="Oval" fill="#D4A077" cx="245" cy="33" r="2"></circle>
                <circle id="Oval-Copy" fill="#4EC9B9" cx="71" cy="46" r="2"></circle>
            </g>
        </g>
    </g>
</svg>
